# Blender 4.4.3
# www.blender.org
mtllib クリスタル.mtl
o 立方体
v -0.150000 0.507841 0.150000
v -0.150000 0.907841 0.150000
v -0.150000 0.507841 -0.150000
v -0.150000 0.907841 -0.150000
v 0.150000 0.507841 0.150000
v 0.150000 0.907841 0.150000
v 0.150000 0.507841 -0.150000
v 0.150000 0.907841 -0.150000
v 0.000000 0.507841 -0.240000
v 0.000000 0.907841 -0.240000
v 0.000000 0.507841 0.240000
v 0.000000 0.907841 0.240000
v -0.240000 0.507841 0.000000
v -0.240000 0.907841 0.000000
v 0.240000 0.507841 0.000000
v 0.240000 0.907841 0.000000
v 0.000000 1.407841 0.000000
v 0.000000 0.007841 0.000000
v -0.100000 0.807841 0.200000
v -0.100000 0.807841 -0.200000
v -0.130000 0.207841 0.000000
v -0.130000 1.207841 0.000000
v 0.099819 0.809043 -0.199750
v 0.100000 0.807841 0.200000
v 0.130000 1.207841 0.000000
v 0.130000 0.207841 0.000000
v 0.200000 0.807841 0.101454
v 0.000000 1.203479 0.131454
v 0.000000 0.212203 0.131454
v -0.200000 0.807841 0.101454
v -0.100000 0.360022 0.101454
v -0.100000 1.055660 0.101454
v 0.100000 1.055660 0.101454
v 0.100000 0.360022 0.101454
v -0.201142 0.807841 -0.100829
v 0.200000 0.807841 -0.100000
v 0.000000 1.207841 -0.130000
v 0.000000 0.207841 -0.130000
v -0.100000 1.057841 -0.100000
v -0.100000 0.357841 -0.100000
v 0.100000 0.357841 -0.100000
v 0.100000 1.057841 -0.100000
v -0.150000 0.707841 0.150000
v -0.150000 0.707841 -0.150000
v 0.150000 0.707841 -0.150000
v 0.150000 0.707841 0.150000
v 0.000000 0.707841 0.240000
v 0.000000 0.707841 -0.240000
v 0.240000 0.707841 0.000000
v -0.240000 0.707841 0.000000
v -0.100000 0.707841 -0.200000
v -0.100000 0.707841 0.200000
v 0.100000 0.707841 0.200000
v 0.100000 0.707841 -0.200000
v -0.200000 0.707841 0.101454
v 0.200000 0.707841 0.101454
v 0.200000 0.707841 -0.100000
v -0.200000 0.707841 -0.100000
v -0.150000 0.807841 0.150000
v -0.150000 0.807841 -0.150000
v 0.150000 0.807841 -0.150000
v 0.150000 0.807841 0.150000
v 0.000000 0.807841 0.240000
v 0.000000 0.807841 -0.240000
v 0.240000 0.807841 0.000000
v -0.240000 0.807841 0.000000
v -0.150000 0.607841 -0.150000
v 0.150000 0.607841 -0.150000
v 0.150000 0.607841 0.150000
v 0.000000 0.607841 0.240000
v 0.000000 0.607841 -0.240000
v 0.240000 0.607841 0.000000
v -0.240000 0.607841 0.000000
v -0.100000 0.607841 -0.200000
v -0.100000 0.607841 0.200000
v 0.100000 0.607841 0.200000
v 0.100000 0.607841 -0.200000
v -0.200000 0.607841 0.101454
v 0.200000 0.607841 0.101454
v 0.200000 0.607841 -0.100000
v -0.200000 0.607841 -0.100000
v -0.150000 0.607841 0.150000
vn -0.6931 -0.0000 -0.7209
vn 0.7040 -0.0000 -0.7102
vn 0.6966 -0.0000 0.7175
vn -0.7071 -0.0000 0.7071
vn 0.1869 -0.3630 0.9129
vn -0.1869 0.3630 0.9129
vn 0.5955 0.2969 0.7465
vn -0.5955 -0.2969 0.7465
vn 0.3714 -0.0000 0.9285
vn -0.3714 -0.0000 -0.9285
vn -0.6715 -0.3134 -0.6715
vn 0.6715 0.3134 -0.6715
vn -0.7338 0.2691 -0.6238
vn 0.7338 -0.2691 -0.6238
vn 0.9285 -0.0000 -0.3714
vn -0.9303 -0.0000 0.3668
vn -0.6425 0.4176 -0.6425
vn -0.7454 -0.2981 -0.5963
vn -0.7071 -0.0000 -0.7071
vn -0.9120 -0.3680 0.1812
vn -0.6204 0.2703 0.7362
vn -0.3714 -0.0000 0.9285
vn 0.6425 -0.4176 -0.6425
vn 0.7454 0.2981 -0.5963
vn 0.7071 -0.0000 0.7071
vn 0.9120 0.3680 0.1812
vn 0.6204 -0.2703 0.7362
vn 0.3740 -0.0000 -0.9274
vn 0.6397 -0.4158 0.6464
vn 0.7474 0.3016 0.5920
vn -0.6397 0.4158 0.6464
vn -0.7474 -0.3016 0.5920
vn -0.6966 -0.0000 0.7175
vn -0.6693 -0.3163 0.6723
vn 0.6693 0.3163 0.6723
vn -0.7353 0.2696 0.6218
vn 0.7353 -0.2696 0.6218
vn 0.9303 -0.0000 0.3668
vn 0.9129 0.3651 -0.1826
vn 0.6238 -0.2691 -0.7338
vn -0.9129 -0.3651 -0.1826
vn -0.6238 0.2691 -0.7338
vn 0.7071 -0.0000 -0.7071
vn 0.1826 -0.3651 -0.9129
vn -0.1826 0.3651 -0.9129
vn 0.5960 0.2984 -0.7455
vn -0.5963 -0.2981 -0.7454
vn -0.9331 -0.0000 -0.3596
vn -0.9285 -0.0000 -0.3714
vn 0.3714 -0.0000 -0.9285
vn 0.9120 -0.3680 0.1812
vn -0.9120 0.3680 0.1812
vn 0.6204 0.2703 0.7362
vn -0.6204 -0.2703 0.7362
vn -0.6425 -0.4176 -0.6425
vn 0.6425 0.4176 -0.6425
vn -0.7477 0.3045 -0.5901
vn 0.7454 -0.2981 -0.5963
vn -0.6715 0.3134 -0.6715
vn -0.7338 -0.2691 -0.6238
vn -0.1869 -0.3630 0.9129
vn -0.5955 0.2969 0.7465
vn 0.6715 -0.3134 -0.6715
vn 0.7338 0.2691 -0.6238
vn 0.1869 0.3630 0.9129
vn 0.5955 -0.2969 0.7465
vn 0.6693 -0.3163 0.6723
vn 0.7353 0.2696 0.6218
vn -0.6693 0.3163 0.6723
vn -0.7353 -0.2696 0.6218
vn -0.6397 -0.4158 0.6464
vn 0.6397 0.4158 0.6464
vn -0.7474 0.3016 0.5920
vn 0.7474 -0.3016 0.5920
vn 0.1846 0.3656 -0.9123
vn 0.5963 -0.2981 -0.7454
vn -0.1826 -0.3651 -0.9129
vn -0.5963 0.2981 -0.7454
vn 0.9129 -0.3651 -0.1826
vn -0.9088 0.3683 -0.1962
vn 0.6238 0.2691 -0.7338
vn -0.6238 -0.2691 -0.7338
vn -0.9330 -0.0136 -0.3596
vn 0.3739 0.0030 -0.9274
vn 0.7041 0.0030 -0.7101
vn -0.6930 -0.0139 -0.7208
vt 0.625000 0.187500
vt 0.625000 0.250000
vt 0.562500 0.250000
vt 0.625000 0.437500
vt 0.625000 0.500000
vt 0.562500 0.500000
vt 0.625000 0.688409
vt 0.625000 0.750000
vt 0.562500 0.750000
vt 0.625000 0.937500
vt 0.625000 1.000000
vt 0.562500 1.000000
vt 0.312500 0.688409
vt 0.375000 0.750000
vt 0.312500 0.750000
vt 0.812500 0.688409
vt 0.875000 0.750000
vt 0.812500 0.750000
vt 0.687500 0.688409
vt 0.750000 0.750000
vt 0.687500 0.750000
vt 0.187500 0.688409
vt 0.250000 0.750000
vt 0.187500 0.750000
vt 0.625000 0.812500
vt 0.625000 0.875000
vt 0.562500 0.875000
vt 0.625000 0.312500
vt 0.625000 0.375000
vt 0.562500 0.375000
vt 0.250000 0.562500
vt 0.187500 0.625000
vt 0.187500 0.562500
vt 0.750000 0.562500
vt 0.687500 0.625000
vt 0.687500 0.562500
vt 0.812500 0.562500
vt 0.875000 0.625000
vt 0.812500 0.625000
vt 0.312500 0.562500
vt 0.375000 0.625000
vt 0.312500 0.625000
vt 0.625000 0.562500
vt 0.625000 0.625000
vt 0.562500 0.625000
vt 0.625000 0.061591
vt 0.625000 0.125000
vt 0.562500 0.125000
vt 0.750000 0.625000
vt 0.125000 0.625000
vt 0.125000 0.562500
vt 0.562500 0.312500
vt 0.125000 0.750000
vt 0.125000 0.688409
vt 0.750000 0.688409
vt 0.562500 0.937500
vt 0.250000 0.625000
vt 0.562500 0.812500
vt 0.250000 0.688409
vt 0.562500 0.437500
vt 0.562500 0.000000
vt 0.625000 0.000000
vt 0.562500 0.061591
vt 0.562500 0.688409
vt 0.250000 0.500000
vt 0.125000 0.500000
vt 0.750000 0.500000
vt 0.562500 0.562500
vt 0.375000 0.500000
vt 0.312500 0.500000
vt 0.875000 0.500000
vt 0.812500 0.500000
vt 0.687500 0.500000
vt 0.187500 0.500000
vt 0.562500 0.187500
vt 0.500000 0.125000
vt 0.437500 0.187500
vt 0.437500 0.125000
vt 0.500000 0.500000
vt 0.437500 0.562500
vt 0.437500 0.500000
vt 0.500000 0.625000
vt 0.437500 0.688409
vt 0.437500 0.625000
vt 0.500000 0.000000
vt 0.437500 0.061591
vt 0.437500 0.000000
vt 0.500000 0.375000
vt 0.437500 0.437500
vt 0.437500 0.375000
vt 0.500000 0.750000
vt 0.437500 0.812500
vt 0.437500 0.750000
vt 0.500000 0.875000
vt 0.437500 0.937500
vt 0.437500 0.875000
vt 0.500000 0.250000
vt 0.437500 0.312500
vt 0.437500 0.250000
vt 0.500000 0.061591
vt 0.500000 0.562500
vt 0.500000 0.312500
vt 0.500000 0.812500
vt 0.500000 0.937500
vt 0.437500 1.000000
vt 0.500000 0.688409
vt 0.500000 0.437500
vt 0.500000 0.187500
vt 0.500000 1.000000
vt 0.375000 0.250000
vt 0.375000 1.000000
vt 0.375000 0.875000
vt 0.375000 0.375000
vt 0.375000 0.125000
vt 0.375000 0.312500
vt 0.375000 0.937500
vt 0.375000 0.812500
vt 0.375000 0.437500
vt 0.375000 0.000000
vt 0.375000 0.061591
vt 0.375000 0.688409
vt 0.375000 0.562500
vt 0.375000 0.187500
vt 0.875000 0.688409
vt 0.875000 0.562500
s 0
f 35/1/1 4/2/1 60/3/1
f 23/4/2 8/5/2 61/6/2
f 27/7/3 6/8/3 62/9/3
f 19/10/4 2/11/4 59/12/4
f 34/13/5 5/14/5 76/15/5
f 32/16/6 2/17/6 19/18/6
f 33/19/7 12/20/7 24/21/7
f 31/22/8 11/23/8 75/24/8
f 24/25/9 12/26/9 63/27/9
f 20/28/10 10/29/10 64/30/10
f 38/31/11 21/32/11 40/33/11
f 37/34/12 25/35/12 42/36/12
f 39/37/13 14/38/13 22/39/13
f 41/40/14 15/41/14 26/42/14
f 36/43/15 16/44/15 65/45/15
f 30/46/16 14/47/16 66/48/16
f 37/34/17 22/39/17 17/49/17
f 40/33/18 13/50/18 81/51/18
f 60/3/19 4/2/19 20/52/19
f 31/22/20 1/53/20 78/54/20
f 32/16/21 12/20/21 28/55/21
f 63/27/22 12/26/22 19/56/22
f 38/31/23 26/42/23 18/57/23
f 42/36/24 16/44/24 36/43/24
f 62/9/25 6/8/25 24/58/25
f 33/19/26 6/8/26 27/7/26
f 34/13/27 11/23/27 29/59/27
f 64/30/28 10/29/28 23/60/28
f 26/42/29 29/59/29 18/57/29
f 16/44/30 33/19/30 27/7/30
f 22/39/31 28/55/31 17/49/31
f 13/50/32 31/22/32 78/54/32
f 59/61/33 2/62/33 30/63/33
f 21/32/34 29/59/34 31/22/34
f 25/35/35 28/55/35 33/19/35
f 14/38/36 32/16/36 22/39/36
f 15/41/37 34/13/37 26/42/37
f 65/45/38 16/44/38 27/64/38
f 8/5/39 42/36/39 36/43/39
f 9/65/40 41/40/40 38/31/40
f 3/66/41 40/33/41 81/51/41
f 10/67/42 39/37/42 37/34/42
f 61/6/43 8/5/43 36/68/43
f 7/69/44 41/40/44 77/70/44
f 4/71/45 39/37/45 20/72/45
f 10/67/46 42/36/46 23/73/46
f 9/65/47 40/33/47 74/74/47
f 66/48/48 14/47/48 35/75/48
f 50/76/49 81/77/49 73/78/49
f 45/79/43 80/80/43 68/81/43
f 49/82/38 79/83/38 72/84/38
f 43/85/33 78/86/33 82/87/33
f 48/88/50 77/89/50 71/90/50
f 46/91/25 76/92/25 69/93/25
f 47/94/22 75/95/22 70/96/22
f 44/97/19 74/98/19 67/99/19
f 55/100/16 73/78/16 78/86/16
f 57/101/15 72/84/15 80/80/15
f 51/102/10 71/90/10 74/98/10
f 53/103/9 70/96/9 76/92/9
f 52/104/4 82/105/4 75/95/4
f 56/106/3 69/93/3 79/83/3
f 54/107/43 68/81/43 77/89/43
f 58/108/19 67/99/19 81/77/19
f 66/48/49 58/108/49 50/76/49
f 61/6/43 57/101/43 45/79/43
f 65/45/38 56/106/38 49/82/38
f 59/61/33 55/100/33 43/85/33
f 64/30/50 54/107/50 48/88/50
f 62/9/25 53/103/25 46/91/25
f 63/27/22 52/104/22 47/94/22
f 60/3/19 51/102/19 44/97/19
f 30/63/16 50/76/16 55/100/16
f 36/68/15 49/82/15 57/101/15
f 20/52/10 48/88/10 51/102/10
f 24/58/9 47/94/9 53/103/9
f 19/56/4 43/109/4 52/104/4
f 27/64/3 46/91/3 56/106/3
f 54/107/43 61/6/43 45/79/43
f 58/108/19 60/3/19 44/97/19
f 81/77/19 67/99/19 3/110/19
f 77/89/43 68/81/43 7/69/43
f 79/83/3 69/93/3 5/14/3
f 75/95/4 82/105/4 1/111/4
f 76/92/9 70/96/9 11/112/9
f 74/98/10 71/90/10 9/113/10
f 80/80/15 72/84/15 15/41/15
f 78/86/16 73/78/16 13/114/16
f 3/110/19 67/99/19 74/115/19
f 11/112/22 70/96/22 75/116/22
f 5/14/25 69/93/25 76/117/25
f 9/113/50 71/90/50 77/118/50
f 1/119/33 82/87/33 78/120/33
f 15/41/38 72/84/38 79/121/38
f 7/69/43 68/81/43 80/122/43
f 13/114/49 73/78/49 81/123/49
f 34/13/51 79/121/51 5/14/51
f 32/16/52 30/124/52 2/17/52
f 33/19/53 28/55/53 12/20/53
f 31/22/54 29/59/54 11/23/54
f 38/31/55 18/57/55 21/32/55
f 37/34/56 17/49/56 25/35/56
f 39/37/57 35/125/57 14/38/57
f 41/40/58 80/122/58 15/41/58
f 37/34/59 39/37/59 22/39/59
f 40/33/60 21/32/60 13/50/60
f 31/22/61 75/24/61 1/53/61
f 32/16/62 19/18/62 12/20/62
f 38/31/63 41/40/63 26/42/63
f 42/36/64 25/35/64 16/44/64
f 33/19/65 24/21/65 6/8/65
f 34/13/66 76/15/66 11/23/66
f 26/42/67 34/13/67 29/59/67
f 16/44/68 25/35/68 33/19/68
f 22/39/69 32/16/69 28/55/69
f 13/50/70 21/32/70 31/22/70
f 21/32/71 18/57/71 29/59/71
f 25/35/72 17/49/72 28/55/72
f 14/38/73 30/124/73 32/16/73
f 15/41/74 79/121/74 34/13/74
f 8/5/75 23/73/75 42/36/75
f 9/65/76 77/70/76 41/40/76
f 3/66/77 74/74/77 40/33/77
f 10/67/78 20/72/78 39/37/78
f 7/69/79 80/122/79 41/40/79
f 4/71/80 35/125/80 39/37/80
f 10/67/81 37/34/81 42/36/81
f 9/65/82 38/31/82 40/33/82
f 50/76/49 58/108/49 81/77/49
f 45/79/43 57/101/43 80/80/43
f 49/82/38 56/106/38 79/83/38
f 43/85/33 55/100/33 78/86/33
f 48/88/50 54/107/50 77/89/50
f 46/91/25 53/103/25 76/92/25
f 47/94/22 52/104/22 75/95/22
f 44/97/19 51/102/19 74/98/19
f 55/100/16 50/76/16 73/78/16
f 57/101/15 49/82/15 72/84/15
f 51/102/10 48/88/10 71/90/10
f 53/103/9 47/94/9 70/96/9
f 52/104/4 43/109/4 82/105/4
f 56/106/3 46/91/3 69/93/3
f 54/107/43 45/79/43 68/81/43
f 58/108/19 44/97/19 67/99/19
f 66/48/83 35/75/83 58/108/83
f 61/6/43 36/68/43 57/101/43
f 65/45/38 27/64/38 56/106/38
f 59/61/33 30/63/33 55/100/33
f 64/30/84 23/60/84 54/107/84
f 62/9/25 24/58/25 53/103/25
f 63/27/22 19/56/22 52/104/22
f 60/3/19 20/52/19 51/102/19
f 30/63/16 66/48/16 50/76/16
f 36/68/15 65/45/15 49/82/15
f 20/52/10 64/30/10 48/88/10
f 24/58/9 63/27/9 47/94/9
f 19/56/4 59/12/4 43/109/4
f 27/64/3 62/9/3 46/91/3
f 54/107/85 23/60/85 61/6/85
f 58/108/86 35/75/86 60/3/86
